<?xml version="1.0" standalone="no"?>
<!DOCTYPE svg PUBLIC "-//W3C//DTD SVG 20010904//EN"
 "http://www.w3.org/TR/2001/REC-SVG-20010904/DTD/svg10.dtd">
<svg version="1.0" xmlns="http://www.w3.org/2000/svg"
 width="500.000000pt" height="500.000000pt" viewBox="0 0 500.000000 500.000000"
 preserveAspectRatio="xMidYMid meet">
<metadata>
Created by potrace 1.14, written by Peter Selinger 2001-2017
</metadata>
<g transform="translate(0.000000,500.000000) scale(0.100000,-0.100000)"
fill="#000000" stroke="none">
<path d="M4240 4587 c0 -6 29 -38 65 -72 83 -78 95 -87 95 -79 0 4 8 -4 18
-17 18 -23 26 -59 13 -57 -3 0 -8 -1 -11 -2 -3 -1 -14 -3 -25 -5 -11 -2 -21
-9 -23 -14 -2 -6 -12 -11 -22 -11 -10 0 -20 -5 -22 -11 -2 -5 -10 -11 -18 -13
-8 -2 -24 -6 -35 -10 -11 -5 -27 -10 -35 -13 -24 -9 -60 -11 -60 -2 0 4 -8 6
-17 5 -10 -2 -32 0 -50 5 -43 9 -51 -6 -22 -38 13 -13 22 -28 20 -31 -7 -12
-61 -42 -76 -42 -8 0 -15 -4 -15 -10 0 -6 -3 -9 -7 -8 -14 4 -113 -36 -113
-45 0 -4 -5 -5 -11 -2 -6 4 -17 -1 -25 -11 -9 -11 -12 -13 -8 -5 5 11 3 13
-10 8 -10 -4 -20 -7 -22 -7 -3 0 -3 -4 0 -8 2 -4 -3 -8 -12 -9 -9 -1 -26 -4
-37 -6 -11 -3 -22 -6 -25 -6 -3 -1 2 -6 10 -11 11 -8 8 -9 -12 -4 -18 4 -28 2
-28 -6 0 -6 -5 -8 -10 -5 -6 4 -16 2 -23 -3 -7 -6 -16 -11 -22 -12 -5 -1 -20
-6 -33 -11 -13 -5 -30 -9 -38 -9 -8 0 -14 -4 -14 -10 0 -5 -6 -9 -12 -7 -7 1
-12 -3 -11 -9 1 -6 -4 -11 -12 -11 -8 0 -13 3 -12 6 2 11 -14 51 -22 51 -4 0
-16 8 -27 18 -32 27 -114 82 -124 82 -6 0 -10 4 -10 9 0 5 -12 14 -27 20 -16
6 -36 15 -45 21 -84 48 -127 70 -145 73 -10 2 -29 9 -43 17 -14 8 -27 15 -30
16 -3 0 -12 3 -20 6 -23 9 -102 29 -133 34 -16 2 -34 7 -40 11 -7 4 -23 9 -37
11 -14 1 -38 7 -55 12 -92 27 -450 30 -575 5 -14 -3 -40 -7 -58 -10 -18 -2
-37 -7 -42 -10 -6 -4 -23 -9 -38 -11 -38 -7 -195 -54 -207 -63 -5 -4 -38 -18
-72 -31 -35 -14 -63 -28 -63 -33 0 -4 -4 -6 -9 -3 -5 3 -20 -3 -34 -14 -14
-11 -29 -20 -35 -20 -5 0 -28 -13 -50 -30 -23 -16 -46 -30 -50 -30 -5 0 -17
-9 -27 -20 -10 -11 -23 -20 -29 -20 -7 0 -18 -8 -27 -17 -8 -10 -32 -31 -54
-48 -41 -32 -130 -112 -149 -133 -6 -7 -27 -30 -46 -51 -19 -22 -40 -45 -45
-53 -6 -7 -25 -32 -43 -54 -17 -23 -32 -47 -32 -53 0 -6 -5 -11 -10 -11 -6 0
-15 -10 -20 -22 -10 -23 -14 -31 -61 -103 -14 -22 -33 -58 -41 -80 -9 -22 -27
-65 -41 -95 -28 -60 -63 -160 -71 -200 -3 -14 -10 -41 -16 -60 -36 -119 -56
-436 -36 -585 12 -90 27 -169 46 -237 10 -36 16 -69 12 -72 -3 -3 0 -6 6 -6 7
0 12 -7 12 -15 0 -9 8 -33 19 -54 18 -39 19 -65 6 -131 -4 -19 -7 -43 -7 -52
0 -10 -4 -20 -9 -23 -5 -4 -6 -12 -2 -18 4 -6 8 -41 9 -77 2 -62 8 -125 19
-180 13 -68 17 -80 27 -74 6 4 8 3 5 -3 -3 -5 1 -27 9 -49 8 -21 17 -47 21
-56 3 -10 9 -18 14 -18 5 0 8 -3 8 -7 -3 -20 2 -34 11 -28 5 3 10 -1 10 -10 0
-21 20 -55 52 -86 15 -14 25 -29 22 -32 -3 -2 6 -14 20 -25 15 -11 26 -23 26
-28 0 -13 94 -94 109 -94 8 0 11 -3 8 -6 -8 -8 57 -61 84 -69 11 -4 16 -11 13
-17 -5 -7 -1 -9 9 -5 10 3 17 3 17 -1 0 -7 56 -42 67 -41 3 0 9 -3 12 -8 8
-11 99 -53 115 -53 8 0 17 -7 20 -16 4 -9 9 -14 13 -11 3 4 11 3 17 -2 6 -6
24 -11 39 -13 16 -3 32 -9 35 -14 4 -5 14 -9 22 -9 8 1 20 -1 25 -4 11 -6 33
-12 53 -13 6 -1 12 -5 12 -10 0 -4 11 -8 25 -8 14 0 25 -4 25 -8 0 -5 15 -9
33 -9 17 0 49 -5 70 -12 21 -7 41 -10 44 -7 3 3 15 0 26 -5 21 -12 84 -21 154
-23 22 0 39 -4 37 -7 -2 -4 33 -7 78 -8 45 -1 84 -4 86 -6 3 -2 13 0 23 5 12
7 20 7 24 0 4 -6 10 -8 15 -5 13 8 27 -48 19 -77 -4 -16 -3 -30 1 -33 31 -19
-20 -73 -74 -77 -14 -1 -26 -5 -26 -8 0 -3 -8 -6 -17 -6 -45 -3 -128 -16 -143
-24 -9 -5 -34 -11 -56 -14 -135 -16 -185 -47 -139 -86 8 -7 15 -9 15 -5 0 5
10 0 22 -11 12 -10 18 -13 14 -6 -4 7 -1 12 9 12 10 0 14 5 10 13 -4 6 2 2 13
-11 11 -12 22 -17 24 -11 5 16 217 16 228 0 6 -10 9 -10 12 -1 3 9 33 12 105
12 55 -1 104 -2 109 -3 5 -1 12 0 17 1 28 7 89 1 104 -11 11 -9 14 -10 9 -1
-5 9 6 12 46 12 29 1 98 1 153 2 55 0 108 4 117 9 19 10 18 56 -1 52 -6 -2
-11 1 -11 6 0 5 -15 11 -32 14 -18 3 -49 8 -68 11 -19 4 -47 7 -62 8 -16 0
-28 5 -28 11 0 5 -6 7 -14 4 -8 -3 -17 -3 -21 1 -3 4 -21 8 -38 9 -29 2 -64 8
-77 13 -3 1 -9 2 -14 1 -4 -1 -14 4 -22 10 -8 6 -14 9 -14 5 0 -4 -14 1 -31 9
-22 12 -29 21 -24 33 8 18 8 18 2 79 -6 62 0 65 161 74 27 2 53 9 60 18 11 13
12 13 6 1 -6 -11 -2 -10 13 3 11 9 23 14 26 10 4 -3 7 -2 7 4 0 6 -17 10 -37
9 -21 -1 -48 1 -60 6 -16 5 -23 4 -23 -5 0 -7 -3 -8 -8 -2 -8 11 -41 13 -58 2
-7 -4 -27 7 -45 24 -19 17 -29 28 -23 25 7 -3 14 3 17 14 3 13 1 18 -6 13 -6
-4 -8 0 -4 10 6 15 2 19 -20 16 -13 -1 -19 33 -14 70 6 33 26 47 26 19 0 -7 8
-12 18 -10 11 2 17 -4 17 -15 0 -15 2 -16 10 -3 8 12 10 10 10 -9 0 -20 2 -21
15 -11 8 7 12 16 9 21 -3 5 0 9 6 9 6 0 8 5 5 11 -4 6 2 13 14 16 12 3 21 10
21 15 0 5 6 8 13 5 6 -2 19 -1 27 4 9 4 35 10 59 14 24 3 55 11 70 16 14 6 27
10 29 10 1 -1 4 0 7 0 10 3 20 5 55 13 19 5 46 13 60 19 14 6 27 11 30 12 16
6 50 19 80 33 19 8 41 15 48 15 6 0 12 3 12 7 0 4 28 19 63 35 63 29 119 64
125 78 2 4 8 5 13 1 5 -3 9 -2 9 3 0 4 14 14 30 21 17 8 30 19 30 25 0 7 12
18 28 24 51 23 314 276 319 308 1 6 20 33 43 62 22 28 40 59 40 67 0 9 4 16
10 16 5 0 21 22 35 49 13 27 29 52 35 56 5 3 10 15 10 26 0 10 4 19 8 19 5 0
9 6 9 13 0 6 12 38 26 70 46 99 102 288 118 397 14 101 19 336 8 440 -16 145
-59 322 -104 431 -42 98 -78 173 -97 202 -11 15 -16 27 -11 27 4 0 3 4 -3 8
-6 4 -19 21 -28 37 -31 56 -85 134 -107 155 -8 8 -33 38 -54 65 -22 28 -58 69
-82 91 -23 23 -39 45 -36 48 4 3 0 6 -8 6 -8 0 -4 8 11 19 13 11 27 18 31 15
4 -2 10 3 13 12 3 8 10 12 16 9 5 -3 10 -2 10 4 0 5 9 8 20 6 11 -2 18 -1 16
4 -3 4 15 13 40 20 24 7 44 17 44 23 0 5 4 7 8 4 5 -3 20 1 35 9 14 7 28 11
31 7 3 -3 6 -1 6 5 0 6 10 14 23 18 12 4 24 8 27 9 3 1 20 10 39 20 19 10 50
18 70 18 20 0 41 4 46 8 13 11 40 -10 42 -32 2 -44 4 -47 18 -42 8 4 15 11 15
16 0 6 12 21 26 34 14 14 22 29 18 36 -4 7 -3 8 4 4 7 -4 12 -2 12 3 0 6 7 11
15 11 8 0 15 5 15 12 0 6 3 9 6 5 3 -3 25 1 47 10 23 9 50 15 60 15 9 0 17 3
17 8 0 5 7 6 17 3 9 -4 14 -2 11 3 -4 5 9 9 28 9 23 0 34 -5 35 -15 3 -34 1
-67 -5 -92 -13 -58 -15 -74 -20 -125 -4 -42 -2 -53 10 -53 7 0 14 7 14 16 0 8
5 12 10 9 6 -3 10 2 10 13 0 10 9 36 19 58 11 21 17 42 14 46 -2 5 0 8 4 8 5
0 14 15 21 33 8 23 19 33 34 34 13 1 24 7 26 13 2 5 11 10 19 10 10 0 13 6 9
16 -3 9 -6 19 -6 24 0 5 -9 11 -20 15 -19 6 -19 8 -3 31 9 14 22 23 29 20 8
-3 14 -1 14 4 0 6 9 10 19 10 11 0 26 6 33 13 12 13 42 27 54 26 3 0 14 9 23
20 10 11 21 18 24 15 7 -8 67 56 67 71 0 9 -34 18 -65 16 -42 -2 -125 -15
-132 -21 -2 -2 -7 -4 -13 -5 -5 -1 -11 -3 -12 -5 -2 -1 -19 -4 -38 -7 -19 -2
-39 -8 -44 -13 -14 -14 -35 15 -29 40 4 16 3 21 -5 16 -8 -5 -10 -2 -6 8 5 12
0 15 -20 14 -14 -1 -26 -6 -26 -11 0 -6 -19 -7 -42 -3 -24 4 -48 8 -55 8 -7 1
-10 5 -7 10 3 4 -2 8 -10 8 -9 0 -16 4 -16 9 0 5 -12 12 -27 16 -16 3 -39 14
-53 23 -31 20 -50 24 -50 9z m-2865 -3175 c13 -12 40 -33 59 -46 20 -13 32
-26 29 -30 -4 -3 1 -6 10 -6 10 0 17 -5 17 -11 0 -5 5 -7 10 -4 6 3 10 3 10
-2 0 -7 54 -42 65 -42 3 -1 12 -6 21 -13 34 -29 40 -33 54 -36 8 -2 17 -7 20
-11 4 -5 53 -31 70 -36 3 -1 30 -14 60 -28 57 -27 257 -91 320 -102 131 -22
164 -27 240 -32 47 -3 88 -8 92 -11 13 -13 12 -120 -2 -136 -18 -23 -101 -20
-207 5 -77 18 -102 24 -148 33 -5 1 -21 8 -34 15 -19 11 -22 11 -15 -1 6 -10
5 -11 -7 -2 -8 6 -34 17 -59 24 -25 7 -49 17 -55 20 -8 6 -34 14 -75 25 -32 8
-80 31 -80 39 0 5 -3 6 -6 3 -4 -4 -19 0 -33 7 -26 15 -61 29 -73 30 -3 1 -17
10 -30 21 -14 11 -31 21 -39 23 -8 2 -15 8 -17 13 -2 5 -12 9 -23 9 -10 0 -19
5 -19 10 0 6 -7 10 -15 10 -8 0 -15 5 -15 10 0 6 -5 10 -10 10 -11 0 -24 10
-61 43 -10 9 -21 17 -24 17 -3 0 -16 10 -29 23 -13 12 -34 31 -47 43 -22 19
-73 75 -126 139 -13 15 -23 33 -23 41 0 8 -4 14 -10 14 -8 0 -41 61 -44 82 -1
3 -4 10 -8 14 -13 12 -9 52 5 57 6 3 60 -43 119 -102 59 -58 119 -116 133
-129z m1188 -537 c-7 -21 -12 -19 -10 4 0 11 5 18 9 15 4 -3 5 -11 1 -19z"/>
<path d="M2845 800 c3 -5 8 -10 11 -10 2 0 4 5 4 10 0 6 -5 10 -11 10 -5 0 -7
-4 -4 -10z"/>
</g>
</svg>
